<?xml version="1.0" standalone="no"?><!DOCTYPE svg PUBLIC "-//W3C//DTD SVG 1.1//EN" "http://www.w3.org/Graphics/SVG/1.1/DTD/svg11.dtd"><svg t="1763290756039" class="icon" viewBox="0 0 1024 1024" version="1.1" xmlns="http://www.w3.org/2000/svg" p-id="25513" xmlns:xlink="http://www.w3.org/1999/xlink" width="200" height="200"><path d="M919.04 164.352c-20.48-18.944-43.52-5.12-64 3.072-143.36 54.272-286.208 109.056-429.568 164.352-111.104 43.008-222.208 86.528-332.8 129.536-16.384 6.656-36.352 13.824-35.84 34.304 0.512 22.016 22.016 25.6 38.4 30.72 43.52 13.824 122.368 48.64 165.376 62.976 23.04 7.68 47.104-9.216 83.456-37.376 0 0 401.408-250.368 414.208-254.464 3.584-1.024 6.656 3.584 4.096 6.144-37.376 36.864-159.744 156.16-211.456 196.608-44.032 41.472-88.064 83.456-133.12 123.904-11.776 10.752-19.968 20.48-20.48 37.888-2.048 50.688-6.144 101.376-8.704 151.552-0.512 9.216-8.704 22.016 4.096 27.136 11.264 4.608 22.016-3.584 30.208-11.264 27.648-26.112 55.808-52.224 81.408-79.872 14.848-15.872 24.576-14.336 40.96-1.536 55.296 42.496 111.616 83.456 167.936 124.416 46.08 33.792 74.752 23.552 86.528-32.256 43.52-203.264 86.528-406.528 130.048-609.792 5.632-22.528 9.216-47.616-10.752-66.048z" fill="#0C9CD8" p-id="25514"></path></svg>